# xmcd CD database file
#
# Track frame offsets:
#	150
#	34784
#	75932
#	127022
#	168680
#	208756
#	242422
#	278717
#
# Disc length: 3891 seconds
#
# Revision: 0
# Processed by: cddbd v1.5.2PL0 Copyright (c) Steve Scherf et al.
# Submitted via: CDex 1.70beta2
#
DISCID=660f3108
DTITLE=HIGH FIVE - LIVE FOR FUN
DYEAR=2009
DGENRE=Jazz
TTITLE0=Passion Dance
TTITLE1=Pandaguru
TTITLE2=On The Way Home
TTITLE3=Adam's Apple
TTITLE4=Inception
TTITLE5=Body and Soul
TTITLE6=Five For Fun
TTITLE7=What Is This Things Called Love
EXTD=YEAR: 2009
EXTT0=
EXTT1=
EXTT2=
EXTT3=
EXTT4=
EXTT5=
EXTT6=
EXTT7=
PLAYORDER=
